<svg width="27" height="27" viewBox="0 0 27 27" fill="none" xmlns="http://www.w3.org/2000/svg">
<path d="M13.5 27C20.9558 27 27 20.9558 27 13.5C27 6.04416 20.9558 0 13.5 0C6.04416 0 0 6.04416 0 13.5C0 20.9558 6.04416 27 13.5 27Z" fill="url(#paint0_linear_2_369)"/>
<path d="M19.4082 18.8792L14.8433 7.84262C14.5858 7.272 14.2031 6.99365 13.6986 6.99365H13.295C12.7905 6.99365 12.4077 7.272 12.1503 7.84262L10.1635 12.6511H8.66043C8.21159 12.6546 7.84626 13.0165 7.84278 13.4688V13.4792C7.84626 13.9281 8.21159 14.2934 8.66043 14.2969H9.46765L7.57139 18.8792C7.53659 18.9801 7.51572 19.0845 7.51572 19.1924C7.51572 19.4498 7.59574 19.6516 7.7384 19.8082C7.88105 19.9648 8.08634 20.0413 8.34381 20.0413C8.5143 20.0379 8.67783 19.9857 8.81353 19.8848C8.95966 19.7839 9.06056 19.6377 9.14059 19.4707L11.2282 14.2934H12.6756C13.1245 14.2899 13.4898 13.9281 13.4933 13.4757V13.4549C13.4898 13.006 13.1245 12.6407 12.6756 12.6372H11.9032L13.4968 8.66723L17.839 19.4672C17.9191 19.6342 18.02 19.7804 18.1661 19.8813C18.3018 19.9822 18.4688 20.0344 18.6358 20.0379C18.8933 20.0379 19.0951 19.9613 19.2412 19.8047C19.3874 19.6482 19.4639 19.4464 19.4639 19.1889C19.4674 19.0845 19.45 18.9766 19.4082 18.8792Z" fill="white"/>
<defs>
<linearGradient id="paint0_linear_2_369" x1="23.5654" y1="5.03071" x2="3.4774" y2="21.9327" gradientUnits="userSpaceOnUse">
<stop stop-color="#B6509E"/>
<stop offset="1" stop-color="#2EBAC6"/>
</linearGradient>
</defs>
</svg>
