<svg width="27" height="27" viewBox="0 0 27 27" fill="none" xmlns="http://www.w3.org/2000/svg">
<path d="M13.5 27C20.9561 27 27 20.9561 27 13.5C27 6.04395 20.9561 0 13.5 0C6.04395 0 0 6.04395 0 13.5C0 20.9561 6.04395 27 13.5 27Z" fill="#070A0E"/>
<path fill-rule="evenodd" clip-rule="evenodd" d="M7.79889 18.0269C7.39524 17.7799 7.14819 17.3411 7.14819 16.8686V14.2307C7.14819 13.9175 7.40334 13.6637 7.71654 13.6651C7.81644 13.6651 7.91499 13.6921 8.00139 13.742L13.9535 17.2129C14.3018 17.4154 14.5165 17.788 14.5165 18.1916V20.924C14.5178 21.2993 14.2141 21.6044 13.8388 21.6044C13.7132 21.6044 13.589 21.5693 13.4824 21.5045L7.79889 18.0269ZM16.6711 13.0198C17.0194 13.2223 17.2327 13.5962 17.234 13.9985V19.5443C17.234 19.7077 17.1463 19.8589 17.0032 19.9385L15.7004 20.6716C15.6842 20.681 15.6667 20.6878 15.6478 20.6932V17.6138C15.6478 17.2156 15.4385 16.8457 15.0956 16.6405L9.86844 13.5139V10.0376C9.86844 9.72444 10.1236 9.47064 10.4368 9.47199C10.5367 9.47199 10.6352 9.49899 10.7216 9.54894L16.6711 13.0198ZM19.2766 8.92389C19.6262 9.12639 19.8409 9.50034 19.8409 9.90399V18.004C19.8395 18.17 19.7477 18.3226 19.6019 18.4022L18.3667 19.0691V13.4302C18.3667 13.0319 18.1574 12.6634 17.8172 12.4582L12.4739 9.25329V5.95659C12.4739 5.85669 12.5009 5.75814 12.5495 5.67174C12.7075 5.40174 13.0544 5.30994 13.3244 5.46654L19.2766 8.92389Z" fill="#00D395"/>
</svg>
