<svg width="127" height="27" viewBox="0 0 127 27" fill="none" xmlns="http://www.w3.org/2000/svg">
<path d="M18.5865 14.3004C18.4784 14.8006 18.3047 15.2843 18.07 15.739C17.8201 16.1883 17.5135 16.6036 17.1578 16.9748C16.7866 17.3305 16.3713 17.6371 15.922 17.887C15.4669 18.1207 14.9833 18.2944 14.4834 18.4035C13.9763 18.4922 13.4602 18.5174 12.9468 18.4787C12.438 18.4192 11.9391 18.2939 11.4625 18.106C10.9883 17.905 10.5422 17.6435 10.1351 17.3279C9.74334 16.9946 9.39611 16.6122 9.10201 16.1902C8.82543 15.7592 8.60565 15.2944 8.44813 14.8072C8.30919 14.312 8.23339 13.8012 8.22255 13.2869L11.6783 13.2869C11.6948 13.4592 11.7254 13.6297 11.7698 13.797C11.8288 13.959 11.9021 14.1155 11.9889 14.2645C12.0963 14.4051 12.2155 14.5364 12.3453 14.6568C12.4857 14.7602 12.6357 14.8499 12.7932 14.9249C12.9548 14.9846 13.1226 15.0263 13.2934 15.0491C13.4677 15.0616 13.6428 15.0583 13.8165 15.0393C13.9816 14.9963 14.1425 14.9383 14.2971 14.866C14.4476 14.769 14.5897 14.6597 14.7221 14.5391C14.8427 14.4067 14.952 14.2646 15.0491 14.1141C15.1213 13.9584 15.1793 13.7964 15.2223 13.6302C15.246 13.4536 15.2548 13.2754 15.2485 13.0973C15.223 12.9267 15.1803 12.7591 15.121 12.5971C15.046 12.4396 14.9563 12.2896 14.8529 12.1492C14.7325 12.0194 14.6012 11.9002 14.4606 11.7928C14.3123 11.7047 14.1557 11.6313 13.993 11.5738C13.8226 11.5316 13.6485 11.5053 13.4732 11.4953L0 11.4953L0 8.05261L13.4601 8.05261C13.9745 8.06162 14.4856 8.13746 14.9804 8.2782C15.4676 8.43572 15.9324 8.65549 16.3634 8.93208C16.7854 9.22617 17.1678 9.57341 17.5011 9.96521C17.8187 10.3656 18.0835 10.8051 18.289 11.273C18.4764 11.7475 18.6017 12.2442 18.6617 12.7507C18.7015 13.2684 18.6763 13.789 18.5865 14.3004V14.3004Z" fill="black"/>
<path d="M22.5098 15.0752C22.3271 15.9649 22.02 16.8245 21.5977 17.6286C21.1614 18.423 20.6191 19.1544 19.9859 19.8028C19.3366 20.435 18.6054 20.9772 17.8117 21.4146C17.0069 21.8354 16.1476 22.1424 15.2583 22.3267C14.3684 22.4938 13.4599 22.5389 12.5578 22.4608C11.6601 22.3634 10.7801 22.1433 9.94225 21.8069C9.1085 21.4523 8.32743 20.9847 7.62098 20.4174C6.92773 19.8329 6.31631 19.1577 5.80319 18.41C5.3056 17.6514 4.91607 16.8272 4.64582 15.9612C4.39327 15.0885 4.2602 14.1855 4.25022 13.277L7.62751 13.277C7.63719 13.8512 7.72182 14.4216 7.87926 14.9739C8.05243 15.5184 8.29762 16.0374 8.60833 16.517C8.93653 16.989 9.32446 17.4165 9.76243 17.7888C10.2104 18.1461 10.7041 18.4419 11.2304 18.6683C11.762 18.8799 12.3194 19.0196 12.888 19.0835C13.4603 19.1289 14.0361 19.1003 14.6011 18.9985C15.1611 18.8811 15.7023 18.6875 16.2097 18.4231C16.7111 18.1447 17.1739 17.8017 17.5861 17.403C17.9853 16.988 18.3292 16.5232 18.6094 16.0201C18.871 15.5115 19.0645 14.9706 19.1848 14.4115C19.2856 13.8463 19.3131 13.2705 19.2666 12.6984C19.2042 12.1295 19.0645 11.5718 18.8514 11.0408C18.6266 10.5167 18.3342 10.0243 17.9817 9.57607C17.6092 9.13919 17.1817 8.75237 16.7099 8.42524C16.2303 8.11453 15.7113 7.86933 15.1668 7.69616C14.6145 7.53873 14.0441 7.4541 13.4699 7.44442L0 7.44442L0 4.05078L13.4601 4.05078C14.3667 4.06054 15.2677 4.19475 16.1378 4.44965C17.0046 4.72053 17.8297 5.11001 18.5898 5.60702C19.3376 6.11995 20.0129 6.73139 20.5972 7.4248C21.1651 8.13149 21.6337 8.91248 21.99 9.74608C22.325 10.5844 22.545 11.4642 22.6439 12.3616C22.7232 13.268 22.6781 14.181 22.5098 15.0752Z" fill="black"/>
<path d="M26.4822 15.8631C26.2217 17.1446 25.7814 18.3829 25.1744 19.5412C24.5514 20.687 23.77 21.7392 22.8531 22.6668C21.924 23.5817 20.872 24.363 19.7276 24.988C18.5693 25.595 17.331 26.0353 16.0495 26.2958C14.7699 26.5392 13.4625 26.6019 12.1654 26.4822C10.8649 26.3469 9.59022 26.0277 8.37948 25.534C7.17637 25.0299 6.0504 24.3585 5.03488 23.5397C4.03512 22.704 3.15503 21.7348 2.41936 20.6594C1.70097 19.5679 1.1407 18.3802 0.755232 17.1317C0.385075 15.8799 0.192481 14.5824 0.183087 13.277L3.62577 13.277C3.63646 14.2434 3.77946 15.2037 4.05079 16.1312C4.33884 17.0564 4.75481 17.9368 5.28662 18.7468C5.83093 19.5447 6.48217 20.2641 7.22211 20.8849C7.97561 21.4902 8.80829 21.9896 9.69705 22.3692C10.5944 22.7302 11.5372 22.9657 12.4989 23.0689C13.4568 23.1507 14.4213 23.1023 15.3662 22.925C16.3144 22.7274 17.2301 22.3972 18.0863 21.9442C18.9332 21.4798 19.7131 20.9024 20.4043 20.2278C21.0831 19.5394 21.6649 18.7617 22.1339 17.9163C22.5868 17.0601 22.917 16.1444 23.1147 15.1962C23.292 14.2469 23.3393 13.2779 23.2553 12.3158C23.1531 11.3543 22.9187 10.4115 22.5589 9.51396C22.1792 8.62521 21.6798 7.79252 21.0746 7.03902C20.453 6.29889 19.7336 5.64667 18.9364 5.10027C17.317 4.02192 15.4155 3.44532 13.4699 3.44268L0 3.44268L0 0L13.4601 0C14.7698 0.00816939 16.0719 0.200777 17.3278 0.572145C18.5765 0.958638 19.7642 1.52001 20.8555 2.23954C21.9332 2.97246 22.9027 3.85287 23.7359 4.85506C24.5573 5.86931 25.232 6.99411 25.74 8.19639C26.2333 9.40839 26.5525 10.6841 26.6881 11.9856C26.8008 13.2814 26.7314 14.5866 26.4822 15.8631V15.8631Z" fill="black"/>
<path d="M31.9512 24.1806V0.650985H40.0898C41.6397 0.625129 43.1782 0.918706 44.6095 1.51341C45.8791 2.03991 46.9699 2.92129 47.751 4.05188C48.5455 5.27453 48.9451 6.71162 48.8959 8.16875C48.9397 9.57262 48.576 10.9591 47.8487 12.1609C47.1415 13.2727 46.1225 14.1518 44.9188 14.6885C43.5522 15.2897 42.0709 15.5859 40.5782 15.5563H35.5268V24.1806H31.9512ZM35.4834 12.7087H40.4805C41.8256 12.7579 43.1378 12.2856 44.1429 11.3906C44.6147 10.9547 44.9857 10.4212 45.2303 9.82733C45.4748 9.23344 45.587 8.59342 45.559 7.95179C45.5966 7.31871 45.4835 6.68575 45.2288 6.10491C44.9741 5.52407 44.5852 5.01192 44.0941 4.61056C43.0182 3.80156 41.6954 3.38953 40.3503 3.44438H35.4671L35.4834 12.7087Z" fill="black"/>
<path d="M54.479 24.5059C53.4855 24.5247 52.5 24.3247 51.5925 23.9201C50.7929 23.5572 50.1134 22.9739 49.6338 22.2386C49.1389 21.4383 48.8898 20.5104 48.9176 19.57C48.9176 17.7041 49.5795 16.3101 50.9034 15.388C52.2273 14.4659 54.3361 13.9742 57.2298 13.9127L59.997 13.8313V12.6109C60.0199 12.192 59.955 11.773 59.8064 11.3807C59.6579 10.9884 59.4289 10.6315 59.1343 10.3328C58.3915 9.72309 57.4381 9.43075 56.4811 9.51918C55.6403 9.50368 54.8113 9.71745 54.0829 10.1375C53.7228 10.3604 53.4139 10.6568 53.1764 11.0073C52.9389 11.3578 52.7782 11.7546 52.7047 12.1716H49.6609C49.6921 11.1549 50.0307 10.1715 50.6321 9.35104C51.2476 8.54873 52.0797 7.93899 53.0303 7.59364C54.1863 7.19531 55.4054 7.01149 56.6276 7.05123C57.9228 7.00697 59.2139 7.22085 60.4256 7.68042C61.3411 8.03331 62.1164 8.67507 62.6339 9.50834C63.1386 10.4001 63.3882 11.4133 63.3555 12.4373V24.1804H60.4093L60.1326 21.0887C59.6522 22.2177 58.8158 23.1586 57.7507 23.7682C56.7353 24.2735 55.613 24.5265 54.479 24.5059ZM55.5641 22.0813C56.1029 22.081 56.6375 21.9855 57.143 21.7993C57.6524 21.6131 58.13 21.3497 58.5592 21.0182C58.9615 20.7078 59.3066 20.3297 59.5792 19.9009C59.8231 19.5211 59.96 19.0826 59.9753 18.6316V15.8491L57.6965 15.8979C56.7012 15.8878 55.7088 16.0082 54.7448 16.2559C54.0347 16.4313 53.3904 16.808 52.8892 17.3407C52.4409 17.8708 52.2102 18.5511 52.2436 19.2445C52.2244 19.6456 52.2998 20.0456 52.4638 20.4121C52.6278 20.7786 52.8758 21.1015 53.1876 21.3545C53.8729 21.8663 54.7152 22.1233 55.5696 22.0813H55.5641Z" fill="black"/>
<path d="M70.3332 24.4083C69.5139 24.4394 68.6968 24.3066 67.9296 24.0178C67.3829 23.8016 66.9075 23.4372 66.5568 22.9655C66.2308 22.5219 66.01 22.01 65.9112 21.4685C65.8076 20.8976 65.7567 20.3184 65.7592 19.7382V0H69.1938V19.3802C69.1514 20.0109 69.3131 20.6384 69.6549 21.1701C69.8274 21.3837 70.0445 21.557 70.291 21.6779C70.5375 21.7988 70.8074 21.8643 71.0819 21.8699L71.9609 21.9024V24.1154C71.6868 24.2025 71.4078 24.2731 71.1253 24.327C70.8643 24.3778 70.5991 24.405 70.3332 24.4083V24.4083Z" fill="black"/>
<path d="M77.9835 24.5059C76.9882 24.5246 76.001 24.3247 75.0915 23.9201C74.2855 23.5606 73.5999 22.9769 73.1165 22.2386C72.6272 21.4329 72.3857 20.5011 72.422 19.5591C72.422 17.6933 73.084 16.2993 74.4079 15.3772C75.7318 14.4551 77.8424 13.9669 80.7398 13.9127L83.5069 13.8313V12.6109C83.5298 12.1921 83.4649 11.773 83.3163 11.3807C83.1678 10.9884 82.9388 10.6315 82.6442 10.3328C81.9014 9.7231 80.948 9.43075 79.991 9.51919C79.1485 9.50379 78.3177 9.71751 77.5874 10.1375C77.2291 10.3612 76.9221 10.6581 76.6865 11.0086C76.4508 11.3591 76.2919 11.7554 76.2201 12.1716H73.1925C73.2218 11.1554 73.5585 10.172 74.1583 9.35104C74.7789 8.55655 75.6124 7.95463 76.5619 7.61534C77.708 7.21289 78.9177 7.02176 80.1321 7.05123C81.4273 7.00697 82.7184 7.22085 83.9301 7.68043C84.8439 8.03363 85.6174 8.67545 86.133 9.50834C86.6395 10.3995 86.891 11.4128 86.86 12.4373V24.1805H83.9138L83.6371 21.0887C83.1546 22.2181 82.3163 23.1589 81.2498 23.7682C80.236 24.2727 79.1157 24.5257 77.9835 24.5059V24.5059ZM79.0686 22.0813C79.6074 22.081 80.1419 21.9855 80.6475 21.7993C81.1568 21.6131 81.6345 21.3497 82.0636 21.0182C82.4645 20.7079 82.8079 20.3297 83.0783 19.9009C83.3239 19.5216 83.4626 19.0831 83.4798 18.6316V15.8491L81.2009 15.8979C80.2039 15.8879 79.2098 16.0083 78.2439 16.2559C77.5338 16.4313 76.8894 16.808 76.3883 17.3407C75.9414 17.8714 75.7126 18.5518 75.748 19.2445C75.7289 19.6456 75.8043 20.0456 75.9683 20.4121C76.1323 20.7786 76.3803 21.1015 76.6921 21.3545C77.3774 21.8663 78.2197 22.1233 79.074 22.0813H79.0686Z" fill="black"/>
<path d="M95.4165 24.506C94.4301 24.553 93.446 24.3731 92.5401 23.98C91.6343 23.5869 90.8307 22.9912 90.1915 22.2387C88.9219 20.7236 88.2871 18.5395 88.2871 15.6864C88.2547 14.1297 88.5142 12.5806 89.0521 11.1193C89.4981 9.91019 90.2931 8.86059 91.3363 8.10356C92.4481 7.35496 93.7675 6.9754 95.1072 7.01875C95.7919 7.00837 96.4743 7.10164 97.1311 7.29537C97.6823 7.46128 98.2081 7.70219 98.6937 8.01135C99.4412 8.48697 100.064 9.13409 100.511 9.89893V0H104.011V24.1805H101.407L101.016 20.7308C100.877 21.1498 100.695 21.5533 100.473 21.9349C100.199 22.3975 99.8553 22.8147 99.4533 23.1716C98.9764 23.5918 98.4241 23.9176 97.8256 24.1317C97.0517 24.4005 96.2355 24.5273 95.4165 24.506V24.506ZM96.0839 21.8861C97.6465 21.8861 98.7968 21.398 99.4696 20.4108C100.142 19.4236 100.511 17.8181 100.511 15.5725C100.528 14.4802 100.368 13.3924 100.039 12.3506C99.7927 11.5525 99.2987 10.8535 98.6286 10.3546C97.8864 9.8773 97.0143 9.64227 96.1327 9.68197C95.5357 9.66455 94.9424 9.78067 94.3961 10.0219C93.8497 10.263 93.3642 10.6232 92.9749 11.076C92.1611 11.998 91.7541 13.5005 91.7541 15.5725C91.7541 17.6445 92.1231 19.1741 92.8664 20.2589C93.2167 20.7845 93.6972 21.2106 94.261 21.4958C94.8247 21.7809 95.4527 21.9154 96.0839 21.8861Z" fill="black"/>
<path d="M110.034 0.667236V4.10067H106.534V0.667236H110.034ZM109.969 7.35512V24.1697H106.605V7.35512H109.969Z" fill="black"/>
<path d="M112.54 24.1807V7.36606H115.942V9.76349C116.233 9.28019 116.6 8.84627 117.027 8.47799C117.533 8.05109 118.112 7.7202 118.736 7.50166C120.465 6.92561 122.346 7.01655 124.01 7.75659C124.913 8.17299 125.669 8.85154 126.181 9.70383C126.762 10.75 127.044 11.9361 126.994 13.1318V24.1807H123.511V13.5224C123.549 13.0332 123.482 12.5417 123.314 12.0806C123.147 11.6195 122.883 11.1994 122.54 10.8483C121.851 10.2466 120.958 9.9321 120.044 9.96961C119.378 9.96655 118.716 10.0823 118.091 10.3113C117.506 10.5137 116.989 10.872 116.593 11.3473C116.213 11.8416 116.021 12.4548 116.051 13.0776V24.1807H112.54Z" fill="black"/>
</svg>
