<svg width="20" height="20" viewBox="0 0 20 20" fill="none" xmlns="http://www.w3.org/2000/svg">
<circle cx="10" cy="10" r="9.25" fill="white" stroke="#595959" stroke-width="0.5"/>
<path d="M8.60603 5.65724C8.46903 5.63766 8.4625 5.63114 8.52774 5.62462C8.6517 5.60504 8.93875 5.63114 9.141 5.67681C9.61073 5.78772 10.0348 6.07477 10.4849 6.57712L10.6024 6.71412L10.772 6.68803C11.4962 6.5706 12.2399 6.66193 12.8597 6.94899C13.0293 7.02728 13.2968 7.18385 13.3294 7.223C13.3425 7.23604 13.362 7.32086 13.3751 7.40567C13.4207 7.7123 13.4012 7.94063 13.3033 8.11678C13.2511 8.21464 13.2511 8.24074 13.2837 8.32555C13.3098 8.39079 13.3881 8.43646 13.4599 8.43646C13.6165 8.43646 13.7796 8.18855 13.8578 7.84277L13.8905 7.70577L13.9492 7.77101C14.2819 8.14288 14.5429 8.65827 14.582 9.02362L14.5951 9.12148L14.5363 9.03667C14.4385 8.88661 14.3471 8.78875 14.2232 8.70394C14.0014 8.55389 13.7665 8.50822 13.1467 8.4756C12.5857 8.44298 12.266 8.39731 11.9528 8.29293C11.4179 8.11678 11.1439 7.88844 10.511 7.04685C10.2305 6.67498 10.0544 6.47274 9.87821 6.30311C9.49329 5.93124 9.10838 5.73552 8.60603 5.65724Z" fill="#FF007A"/>
<path d="M13.4664 6.48575C13.4794 6.23784 13.5121 6.07474 13.5838 5.92469C13.6099 5.86597 13.636 5.81378 13.6425 5.81378C13.6491 5.81378 13.636 5.85945 13.6164 5.91164C13.5642 6.05517 13.5577 6.25741 13.5903 6.48575C13.636 6.77933 13.6556 6.81848 13.9687 7.13815C14.1123 7.2882 14.2819 7.4774 14.3471 7.55569L14.458 7.69922L14.3471 7.59483C14.2101 7.46435 13.897 7.21644 13.8252 7.18382C13.7795 7.15772 13.773 7.15772 13.7404 7.19034C13.7143 7.21644 13.7078 7.25558 13.7078 7.44478C13.7012 7.73836 13.6621 7.92103 13.5642 8.11023C13.5121 8.20809 13.5055 8.18852 13.5512 8.07761C13.5838 7.9928 13.5903 7.95365 13.5903 7.67312C13.5903 7.10553 13.5251 6.96853 13.1271 6.74019C13.0293 6.68147 12.8597 6.59666 12.7618 6.55099C12.6574 6.50533 12.5791 6.46618 12.5856 6.46618C12.5987 6.45313 12.9836 6.56404 13.1337 6.62928C13.362 6.72062 13.4011 6.72714 13.4272 6.72062C13.4468 6.70105 13.4599 6.64885 13.4664 6.48575Z" fill="#FF007A"/>
<path d="M8.87347 7.45775C8.59946 7.07936 8.42332 6.4922 8.46246 6.05509L8.47551 5.91809L8.54075 5.93114C8.65818 5.95071 8.86042 6.029 8.95828 6.08771C9.21924 6.24429 9.33668 6.45958 9.44758 6.99455C9.4802 7.15113 9.52587 7.3338 9.54544 7.39251C9.57806 7.49037 9.70202 7.71871 9.8064 7.86224C9.87817 7.96663 9.8325 8.01882 9.6694 8.00577C9.42149 7.97967 9.08876 7.75133 8.87347 7.45775Z" fill="#FF007A"/>
<path d="M13.1337 10.2958C11.842 9.77386 11.3853 9.32371 11.3853 8.5604C11.3853 8.44949 11.3918 8.35815 11.3918 8.35815C11.3984 8.35815 11.444 8.3973 11.5027 8.44297C11.7637 8.65173 12.0573 8.74307 12.8728 8.8605C13.349 8.93227 13.623 8.98446 13.871 9.06927C14.6604 9.33023 15.1497 9.8652 15.2671 10.5894C15.2997 10.7981 15.2801 11.1961 15.2279 11.4049C15.1823 11.568 15.0518 11.8681 15.0192 11.8746C15.0127 11.8746 14.9996 11.842 14.9996 11.7898C14.9866 11.5158 14.8496 11.2548 14.6212 11.0526C14.3472 10.8177 13.9949 10.6416 13.1337 10.2958Z" fill="#FF007A"/>
<path d="M12.2203 10.5109C12.2073 10.413 12.1747 10.2891 12.1551 10.2369L12.1225 10.139L12.1812 10.2108C12.266 10.3087 12.3312 10.4261 12.3899 10.5892C12.4356 10.7131 12.4356 10.7523 12.4356 10.9545C12.4356 11.1503 12.4291 11.1959 12.3899 11.3068C12.3247 11.483 12.2464 11.6069 12.1159 11.7439C11.8811 11.9853 11.5744 12.1158 11.1373 12.1745C11.059 12.181 10.8372 12.2006 10.6415 12.2137C10.1522 12.2398 9.82601 12.292 9.53243 12.3963C9.49329 12.4094 9.45415 12.4224 9.44762 12.4159C9.43457 12.4029 9.63682 12.2854 9.79992 12.2071C10.0283 12.0962 10.2631 12.0375 10.7785 11.9462C11.033 11.907 11.2939 11.8548 11.3592 11.8288C12.005 11.6265 12.3247 11.1242 12.2203 10.5109Z" fill="#FF007A"/>
<path d="M12.8142 11.5615C12.6446 11.1896 12.6054 10.8373 12.6968 10.5046C12.7098 10.472 12.7229 10.4393 12.7359 10.4393C12.7489 10.4393 12.7881 10.4589 12.8272 10.485C12.9055 10.5372 13.0686 10.6285 13.4862 10.8569C14.0146 11.1439 14.3147 11.3657 14.5235 11.6202C14.7061 11.842 14.8171 12.0964 14.8692 12.4096C14.9019 12.5857 14.8823 13.0098 14.8366 13.1859C14.6931 13.7405 14.3669 14.1841 13.8906 14.4385C13.8189 14.4777 13.7602 14.5038 13.7536 14.5038C13.7471 14.5038 13.7732 14.4385 13.8124 14.3603C13.9689 14.0275 13.9885 13.7079 13.8711 13.349C13.7993 13.1272 13.6493 12.8597 13.3492 12.4096C12.9903 11.8877 12.9055 11.7507 12.8142 11.5615Z" fill="#FF007A"/>
<path d="M7.95362 13.5576C8.4364 13.1531 9.03008 12.8661 9.5781 12.7748C9.81296 12.7356 10.2044 12.7487 10.4197 12.8074C10.7655 12.8987 11.0786 13.0944 11.2417 13.3358C11.3983 13.5707 11.4701 13.7729 11.5418 14.2231C11.5679 14.3992 11.6005 14.5819 11.6071 14.621C11.6593 14.8559 11.7636 15.0386 11.8941 15.1364C12.0964 15.2865 12.4487 15.293 12.7944 15.1625C12.8531 15.143 12.9053 15.1234 12.9053 15.1299C12.9184 15.143 12.7422 15.2604 12.6248 15.3191C12.4617 15.4039 12.3312 15.43 12.1551 15.43C11.8419 15.43 11.5744 15.2669 11.3591 14.9407C11.3135 14.8755 11.2221 14.6863 11.1439 14.5101C10.9155 13.9817 10.7981 13.8251 10.5306 13.649C10.2957 13.4989 9.99563 13.4663 9.76729 13.5772C9.46719 13.7207 9.3889 14.1057 9.59767 14.3405C9.68248 14.4384 9.83906 14.5167 9.96954 14.5362C10.2109 14.5689 10.4197 14.3797 10.4197 14.1383C10.4197 13.9817 10.361 13.8904 10.2044 13.8186C9.99563 13.7273 9.76729 13.8316 9.77382 14.0339C9.77382 14.1187 9.81296 14.1709 9.89777 14.21C9.94997 14.2361 9.94997 14.2361 9.91082 14.2296C9.72163 14.1905 9.67596 13.9556 9.82601 13.8055C10.0087 13.6229 10.3936 13.7012 10.5241 13.9556C10.5763 14.06 10.5828 14.2688 10.5371 14.3992C10.4262 14.6863 10.1131 14.8363 9.79339 14.7515C9.5781 14.6928 9.48676 14.6341 9.2258 14.3666C8.76912 13.8969 8.59298 13.8055 7.94058 13.7077L7.81662 13.6881L7.95362 13.5576Z" fill="#FF007A"/>
<path fill-rule="evenodd" clip-rule="evenodd" d="M4.52209 3.06056C6.04218 4.90685 8.3843 7.77741 8.50173 7.93398C8.59959 8.06446 8.56045 8.18842 8.39735 8.27976C8.30601 8.33195 8.11682 8.38414 8.02548 8.38414C7.9211 8.38414 7.79714 8.33195 7.71233 8.24714C7.65361 8.18842 7.39918 7.81655 6.82506 6.92277C6.38796 6.23775 6.01609 5.67016 6.00956 5.66363C5.98347 5.65059 5.98347 5.65059 6.7794 7.07282C7.28174 7.9666 7.44484 8.28628 7.44484 8.32542C7.44484 8.41024 7.41875 8.4559 7.31436 8.57334C7.13822 8.76906 7.05993 8.99087 7.00121 9.45408C6.93597 9.96947 6.75982 10.3348 6.25748 10.9546C5.9639 11.3199 5.91823 11.3852 5.84646 11.5352C5.75513 11.7179 5.72903 11.8223 5.71598 12.0571C5.70294 12.3051 5.72903 12.4616 5.8008 12.6965C5.86604 12.9053 5.9378 13.0423 6.11395 13.3098C6.264 13.5446 6.35534 13.7208 6.35534 13.786C6.35534 13.8382 6.36838 13.8382 6.60325 13.786C7.16431 13.6555 7.62752 13.4337 7.88195 13.1597C8.03853 12.9901 8.07767 12.8987 8.07767 12.6639C8.07767 12.5138 8.07115 12.4812 8.032 12.3899C7.96676 12.2463 7.84281 12.1289 7.57532 11.9462C7.22303 11.7049 7.07298 11.5091 7.03383 11.2482C7.00121 11.0264 7.04036 10.8763 7.23608 10.4653C7.43832 10.0412 7.49051 9.86509 7.52313 9.4345C7.5427 9.1605 7.57532 9.04959 7.65361 8.96478C7.73842 8.87344 7.81019 8.84082 8.01243 8.81472C8.34516 8.76906 8.56045 8.68424 8.73007 8.52114C8.88012 8.38414 8.94536 8.24714 8.95189 8.04489L8.95841 7.89484L8.8736 7.8035C8.56697 7.45121 4.31985 2.78003 4.30028 2.78003C4.29375 2.78003 4.39814 2.90399 4.52209 3.06056ZM6.52496 12.3377C6.59672 12.2137 6.55758 12.0571 6.44015 11.9789C6.32924 11.9071 6.15962 11.9397 6.15962 12.0376C6.15962 12.0637 6.17266 12.0898 6.21181 12.1028C6.27052 12.1354 6.27705 12.1681 6.23138 12.2398C6.18571 12.3116 6.18571 12.3768 6.24443 12.4225C6.33576 12.4943 6.45972 12.4551 6.52496 12.3377Z" fill="#FF007A"/>
<path fill-rule="evenodd" clip-rule="evenodd" d="M9.16708 8.90602C9.0105 8.95169 8.86045 9.12132 8.81478 9.29094C8.78869 9.39532 8.80174 9.58452 8.8474 9.64323C8.91917 9.73457 8.98441 9.76067 9.16708 9.76067C9.5259 9.76067 9.83253 9.60409 9.86515 9.41489C9.89777 9.25832 9.76076 9.04303 9.57157 8.94517C9.47371 8.89298 9.27146 8.8734 9.16708 8.90602ZM9.58461 9.23222C9.63681 9.15394 9.61723 9.06912 9.51938 9.01041C9.34323 8.8995 9.07574 8.99084 9.07574 9.16046C9.07574 9.24527 9.21275 9.33661 9.34323 9.33661C9.42804 9.33661 9.54547 9.28441 9.58461 9.23222Z" fill="#FF007A"/>
</svg>
